# xmcd CD database file
#
# Track frame offsets:
#	225
#	15150
#	34537
#	48513
#	59911
#	75887
#	86671
#	100546
#	111330
#	125929
#	142646
#	154960
#	166061
#	184437
#	200711
#	212187
#	224823
#	238720
#	254242
#	269436
#
# Disc length: 3776 seconds
#
# Revision: 0
# Processed by: cddbd v1.5PL3 Copyright (c) Steve Scherf et al.
# Submitted via: CDex 1.50
#
DISCID=2c0ebd14
DTITLE=Various Artist - Country za vsechny prachy
DYEAR=2001
DGENRE=Country
TTITLE0=Michal Tucny - Spim v obili
TTITLE1=Robert Krestan and Druha Trava - Ossian
TTITLE2=Karel Gott - Jsem na svete rad
TTITLE3=Honza Vycital - Vem me k vam
TTITLE4=Pavel Bobek and Pavlina Jisova - Motylek rano
TTITLE5=Taxmeni - Hledany muz
TTITLE6=Mirek Cerny - Big Bad John
TTITLE7=Wabi Danek - Shanty town
TTITLE8=Vera Martinova - Dum u vychazejiciho slunce
TTITLE9=Petr Spaleny - Hrac
TTITLE10=Rangers - Zvednete kotvy
TTITLE11=Robert Krestan - Sest bilych koni
TTITLE12=Honza Vycital a Greenhorns - Sterk a sul s peprem
TTITLE13=Taxmeni  Hobo song
TTITLE14=Schovanky, zp. Jana Trckova - Diggy Liggy
TTITLE15=Pavel Bobek - Pojd stoupat jak dym
TTITLE16=Ladislav Vodicka - Tom Dooley
TTITLE17=Mirek Hoffmann and Tomas Linka - Posledni sklenka
TTITLE18=Michal Tucny - Pane muj ...
TTITLE19=Wabi Danek - Na ceste
EXTD=YEAR: 2001
EXTT0=
EXTT1=
EXTT2=
EXTT3=
EXTT4=
EXTT5=
EXTT6=
EXTT7=
EXTT8=
EXTT9=
EXTT10=
EXTT11=
EXTT12=
EXTT13=
EXTT14=
EXTT15=
EXTT16=
EXTT17=
EXTT18=
EXTT19=
PLAYORDER=
